<svg version="1.1" viewBox="0.0 0.0 600.0 371.0" fill="none" stroke="none" stroke-linecap="square" stroke-miterlimit="10" width="600" height="371" xmlns:xlink="http://www.w3.org/1999/xlink" xmlns="http://www.w3.org/2000/svg"><path fill="#ffffff" d="M0 0L600.0 0L600.0 371.0L0 371.0L0 0Z" fill-rule="nonzero"/><path stroke="#cccccc" stroke-width="1.0" stroke-linecap="butt" d="M116.5 61.5L116.5 300.5" fill-rule="nonzero"/><path stroke="#cccccc" stroke-width="1.0" stroke-linecap="butt" d="M234.5 61.5L234.5 300.5" fill-rule="nonzero"/><path stroke="#cccccc" stroke-width="1.0" stroke-linecap="butt" d="M352.5 61.5L352.5 300.5" fill-rule="nonzero"/><path stroke="#cccccc" stroke-width="1.0" stroke-linecap="butt" d="M470.5 61.5L470.5 300.5" fill-rule="nonzero"/><path stroke="#333333" stroke-width="1.0" stroke-linecap="butt" d="M80.5 300.5L581.5 300.5" fill-rule="nonzero"/><path stroke="#cccccc" stroke-width="1.0" stroke-linecap="butt" d="M80.5 240.5L581.5 240.5" fill-rule="nonzero"/><path stroke="#cccccc" stroke-width="1.0" stroke-linecap="butt" d="M80.5 181.5L581.5 181.5" fill-rule="nonzero"/><path stroke="#cccccc" stroke-width="1.0" stroke-linecap="butt" d="M80.5 121.5L581.5 121.5" fill-rule="nonzero"/><path stroke="#cccccc" stroke-width="1.0" stroke-linecap="butt" d="M80.5 61.5L581.5 61.5" fill-rule="nonzero"/><clipPath id="id_0"><path d="M80.55 61.916668L581.45 61.916668L581.45 300.45L80.55 300.45L80.55 61.916668Z" clip-rule="nonzero"/></clipPath><path stroke="#4285f4" stroke-width="2.0" stroke-linecap="butt" clip-path="url(#id_0)" d="M90.166046 226.79091L121.45085 215.21011L186.97185 194.9795L286.13876 170.23465L306.79855 165.65779L383.53485 149.86093L436.66 139.84253L480.93094 131.94409L531.1047 123.431435L571.8339 116.81512" fill-rule="nonzero"/><path fill="#4285f4" clip-path="url(#id_0)" d="M96.166046 226.79091C96.166046 230.10461 93.47976 232.79091 90.166046 232.79091C86.85234 232.79091 84.166046 230.10461 84.166046 226.79091C84.166046 223.4772 86.85234 220.79091 90.166046 220.79091C93.47976 220.79091 96.166046 223.4772 96.166046 226.79091Z" fill-rule="nonzero"/><path fill="#4285f4" clip-path="url(#id_0)" d="M127.45085 215.21011C127.45085 218.52382 124.76456 221.21011 121.45085 221.21011C118.137146 221.21011 115.45085 218.52382 115.45085 215.21011C115.45085 211.89641 118.137146 209.21011 121.45085 209.21011C124.76456 209.21011 127.45085 211.89641 127.45085 215.21011Z" fill-rule="nonzero"/><path fill="#4285f4" clip-path="url(#id_0)" d="M192.97185 194.9795C192.97185 198.29321 190.28557 200.9795 186.97185 200.9795C183.65814 200.9795 180.97185 198.29321 180.97185 194.9795C180.97185 191.6658 183.65814 188.9795 186.97185 188.9795C190.28557 188.9795 192.97185 191.6658 192.97185 194.9795Z" fill-rule="nonzero"/><path fill="#4285f4" clip-path="url(#id_0)" d="M292.13876 170.23465C292.13876 173.54836 289.45248 176.23465 286.13876 176.23465C282.82507 176.23465 280.13876 173.54836 280.13876 170.23465C280.13876 166.92094 282.82507 164.23465 286.13876 164.23465C289.45248 164.23465 292.13876 166.92094 292.13876 170.23465Z" fill-rule="nonzero"/><path fill="#4285f4" clip-path="url(#id_0)" d="M312.79855 165.65779C312.79855 168.9715 310.11224 171.65779 306.79855 171.65779C303.48483 171.65779 300.79855 168.9715 300.79855 165.65779C300.79855 162.34409 303.48483 159.65779 306.79855 159.65779C310.11224 159.65779 312.79855 162.34409 312.79855 165.65779Z" fill-rule="nonzero"/><path fill="#4285f4" clip-path="url(#id_0)" d="M389.53485 149.86093C389.53485 153.17464 386.84857 155.86093 383.53485 155.86093C380.22116 155.86093 377.53485 153.17464 377.53485 149.86093C377.53485 146.54721 380.22116 143.86093 383.53485 143.86093C386.84857 143.86093 389.53485 146.54721 389.53485 149.86093Z" fill-rule="nonzero"/><path fill="#4285f4" clip-path="url(#id_0)" d="M442.66 139.84253C442.66 143.15623 439.9737 145.84253 436.66 145.84253C433.34628 145.84253 430.66 143.15623 430.66 139.84253C430.66 136.52882 433.34628 133.84253 436.66 133.84253C439.9737 133.84253 442.66 136.52882 442.66 139.84253Z" fill-rule="nonzero"/><path fill="#4285f4" clip-path="url(#id_0)" d="M486.93094 131.94409C486.93094 135.2578 484.24466 137.94409 480.93094 137.94409C477.61722 137.94409 474.93094 135.2578 474.93094 131.94409C474.93094 128.63039 477.61722 125.94409 480.93094 125.94409C484.24466 125.94409 486.93094 128.63039 486.93094 131.94409Z" fill-rule="nonzero"/><path fill="#4285f4" clip-path="url(#id_0)" d="M537.1047 123.431435C537.1047 126.74514 534.4184 129.43143 531.1047 129.43143C527.79095 129.43143 525.1047 126.74514 525.1047 123.431435C525.1047 120.11772 527.79095 117.431435 531.1047 117.431435C534.4184 117.431435 537.1047 120.11772 537.1047 123.431435Z" fill-rule="nonzero"/><path fill="#4285f4" clip-path="url(#id_0)" d="M577.8339 116.81512C577.8339 120.12882 575.14764 122.81512 571.8339 122.81512C568.52026 122.81512 565.8339 120.12882 565.8339 116.81512C565.8339 113.5014 568.52026 110.81512 571.8339 110.81512C575.14764 110.81512 577.8339 113.5014 577.8339 116.81512Z" fill-rule="nonzero"/><path fill="#000000" d="M307.375 349.45L304.04688 340.85626L305.28125 340.85626L307.51562 347.10626Q307.78125 347.85626 307.96875 348.5125Q308.17188 347.8094 308.4375 347.10626L310.75 340.85626L311.90625 340.85626L308.54688 349.45L307.375 349.45ZM316.8125 351.98126Q315.9375 350.8719 315.32812 349.40314Q314.73438 347.91876 314.73438 346.34064Q314.73438 344.95 315.17188 343.66876Q315.70312 342.1844 316.8125 340.71564L317.5625 340.71564Q316.85938 341.9344 316.625 342.45Q316.26562 343.2625 316.0625 344.1375Q315.8125 345.23126 315.8125 346.34064Q315.8125 349.16876 317.5625 351.98126L316.8125 351.98126ZM322.46875 349.45L321.42188 349.45L321.42188 342.73126Q321.03125 343.09064 320.40625 343.46564Q319.79688 343.825 319.3125 343.9969L319.3125 342.98126Q320.1875 342.5594 320.84375 341.98126Q321.51562 341.3875 321.79688 340.825L322.46875 340.825L322.46875 349.45ZM325.5 345.21564Q325.5 343.6844 325.8125 342.7625Q326.125 341.825 326.73438 341.325Q327.35938 340.825 328.29688 340.825Q328.98438 340.825 329.5 341.10626Q330.03125 341.3875 330.375 341.91876Q330.71875 342.4344 330.90625 343.1844Q331.09375 343.9344 331.09375 345.21564Q331.09375 346.73126 330.78125 347.65314Q330.48438 348.575 329.85938 349.09064Q329.25 349.59064 328.29688 349.59064Q327.0625 349.59064 326.34375 348.7Q325.5 347.6375 325.5 345.21564ZM326.57812 345.21564Q326.57812 347.325 327.07812 348.02814Q327.57812 348.73126 328.29688 348.73126Q329.03125 348.73126 329.51562 348.02814Q330.01562 347.325 330.01562 345.21564Q330.01562 343.09064 329.51562 342.40314Q329.03125 341.7 328.28125 341.7Q327.5625 341.7 327.125 342.3094Q326.57812 343.09064 326.57812 345.21564ZM333.40625 345.40314L332.3125 345.40314L334.39062 340.71564L335.23438 340.71564L337.3125 345.40314L336.25 345.40314L334.8125 341.90314L333.40625 345.40314ZM342.96875 342.96564L341.92188 343.04376Q341.78125 342.41876 341.53125 342.1375Q341.09375 341.6844 340.46875 341.6844Q339.96875 341.6844 339.57812 341.96564Q339.09375 342.34064 338.79688 343.04376Q338.51562 343.73126 338.5 345.0125Q338.875 344.4344 339.42188 344.15314Q339.98438 343.8719 340.59375 343.8719Q341.64062 343.8719 342.375 344.65314Q343.125 345.4344 343.125 346.65314Q343.125 347.46564 342.76562 348.16876Q342.42188 348.85626 341.8125 349.23126Q341.20312 349.59064 340.4375 349.59064Q339.10938 349.59064 338.28125 348.6219Q337.45312 347.65314 337.45312 345.4344Q337.45312 342.9344 338.375 341.8094Q339.17188 340.825 340.53125 340.825Q341.54688 340.825 342.1875 341.40314Q342.84375 341.96564 342.96875 342.96564ZM338.67188 346.66876Q338.67188 347.21564 338.89062 347.71564Q339.125 348.2 339.53125 348.46564Q339.95312 348.73126 340.42188 348.73126Q341.07812 348.73126 341.5625 348.2Q342.04688 347.65314 342.04688 346.73126Q342.04688 345.84064 341.5625 345.325Q341.09375 344.8094 340.375 344.8094Q339.65625 344.8094 339.15625 345.325Q338.67188 345.84064 338.67188 346.66876ZM350.375 349.45L347.04688 340.85626L348.28125 340.85626L350.51562 347.10626Q350.78125 347.85626 350.96875 348.5125Q351.17188 347.8094 351.4375 347.10626L353.75 340.85626L354.90625 340.85626L351.54688 349.45L350.375 349.45ZM355.48438 351.98126L354.73438 351.98126Q356.48438 349.16876 356.48438 346.34064Q356.48438 345.2469 356.23438 344.15314Q356.03125 343.27814 355.67188 342.46564Q355.4375 341.95 354.73438 340.71564L355.48438 340.71564Q356.57812 342.1844 357.10938 343.66876Q357.5625 344.95 357.5625 346.34064Q357.5625 347.91876 356.95312 349.40314Q356.34375 350.8719 355.48438 351.98126Z" fill-rule="nonzero"/><path fill="#000000" d="M29.550013 192.16771L23.331263 194.52708L23.331263 193.41771L27.050013 192.07396Q27.659388 191.87083 28.300013 191.68333Q27.815638 191.54271 27.128138 191.29271L23.331263 189.90208L23.331263 188.82396L29.550013 191.18333L29.550013 192.16771ZM29.690638 189.68333L20.815638 187.19896L20.815638 186.35521L29.690638 188.83958L29.690638 189.68333ZM27.268763 181.82396L27.409388 180.79271Q28.471888 180.96458 29.081263 181.66771Q29.690638 182.37083 29.690638 183.38646Q29.690638 184.66771 28.862513 185.44896Q28.018763 186.21458 26.456263 186.21458Q25.456263 186.21458 24.706263 185.88646Q23.940638 185.54271 23.565638 184.87083Q23.190638 184.18333 23.190638 183.37083Q23.190638 182.37083 23.706263 181.73021Q24.206263 181.07396 25.159388 180.88646L25.315638 181.91771Q24.690638 182.05833 24.378138 182.43333Q24.050013 182.80833 24.050013 183.33958Q24.050013 184.13646 24.628138 184.63646Q25.190638 185.13646 26.425013 185.13646Q27.690638 185.13646 28.253138 184.65208Q28.815638 184.16771 28.815638 183.40208Q28.815638 182.77708 28.440638 182.37083Q28.065638 181.94896 27.268763 181.82396Z" fill-rule="nonzero"/><path fill="#000000" d="M51.05 300.21564Q51.05 298.6844 51.3625 297.7625Q51.675 296.825 52.284374 296.325Q52.909374 295.825 53.846874 295.825Q54.534374 295.825 55.05 296.10626Q55.58125 296.3875 55.925 296.91876Q56.26875 297.4344 56.45625 298.1844Q56.64375 298.9344 56.64375 300.21564Q56.64375 301.73126 56.33125 302.65314Q56.034374 303.575 55.409374 304.09064Q54.8 304.59064 53.846874 304.59064Q52.6125 304.59064 51.89375 303.7Q51.05 302.6375 51.05 300.21564ZM52.128124 300.21564Q52.128124 302.325 52.628124 303.02814Q53.128124 303.73126 53.846874 303.73126Q54.58125 303.73126 55.065624 303.02814Q55.565624 302.325 55.565624 300.21564Q55.565624 298.09064 55.065624 297.40314Q54.58125 296.7 53.83125 296.7Q53.1125 296.7 52.675 297.3094Q52.128124 298.09064 52.128124 300.21564ZM58.64375 304.45L58.64375 303.2469L59.846874 303.2469L59.846874 304.45L58.64375 304.45ZM61.05 300.21564Q61.05 298.6844 61.3625 297.7625Q61.675 296.825 62.284374 296.325Q62.909374 295.825 63.846874 295.825Q64.53438 295.825 65.05 296.10626Q65.58125 296.3875 65.925 296.91876Q66.26875 297.4344 66.45625 298.1844Q66.64375 298.9344 66.64375 300.21564Q66.64375 301.73126 66.33125 302.65314Q66.03438 303.575 65.40938 304.09064Q64.8 304.59064 63.846874 304.59064Q62.6125 304.59064 61.89375 303.7Q61.05 302.6375 61.05 300.21564ZM62.128124 300.21564Q62.128124 302.325 62.628124 303.02814Q63.128124 303.73126 63.846874 303.73126Q64.58125 303.73126 65.06563 303.02814Q65.56563 302.325 65.56563 300.21564Q65.56563 298.09064 65.06563 297.40314Q64.58125 296.7 63.83125 296.7Q63.1125 296.7 62.675 297.3094Q62.128124 298.09064 62.128124 300.21564ZM68.05 300.21564Q68.05 298.6844 68.3625 297.7625Q68.675 296.825 69.28438 296.325Q69.90938 295.825 70.84688 295.825Q71.53438 295.825 72.05 296.10626Q72.58125 296.3875 72.925 296.91876Q73.26875 297.4344 73.45625 298.1844Q73.64375 298.9344 73.64375 300.21564Q73.64375 301.73126 73.33125 302.65314Q73.03438 303.575 72.40938 304.09064Q71.8 304.59064 70.84688 304.59064Q69.6125 304.59064 68.89375 303.7Q68.05 302.6375 68.05 300.21564ZM69.12813 300.21564Q69.12813 302.325 69.62813 303.02814Q70.12813 303.73126 70.84688 303.73126Q71.58125 303.73126 72.06563 303.02814Q72.56563 302.325 72.56563 300.21564Q72.56563 298.09064 72.06563 297.40314Q71.58125 296.7 70.83125 296.7Q70.1125 296.7 69.675 297.3094Q69.12813 298.09064 69.12813 300.21564Z" fill-rule="nonzero"/><path fill="#000000" d="M51.05 240.58229Q51.05 239.05104 51.3625 238.12917Q51.675 237.19167 52.284374 236.69167Q52.909374 236.19167 53.846874 236.19167Q54.534374 236.19167 55.05 236.47292Q55.58125 236.75417 55.925 237.28542Q56.26875 237.80104 56.45625 238.55104Q56.64375 239.30104 56.64375 240.58229Q56.64375 242.09792 56.33125 243.01979Q56.034374 243.94167 55.409374 244.45729Q54.8 244.95729 53.846874 244.95729Q52.6125 244.95729 51.89375 244.06667Q51.05 243.00417 51.05 240.58229ZM52.128124 240.58229Q52.128124 242.69167 52.628124 243.39479Q53.128124 244.09792 53.846874 244.09792Q54.58125 244.09792 55.065624 243.39479Q55.565624 242.69167 55.565624 240.58229Q55.565624 238.45729 55.065624 237.76979Q54.58125 237.06667 53.83125 237.06667Q53.1125 237.06667 52.675 237.67604Q52.128124 238.45729 52.128124 240.58229ZM58.64375 244.81667L58.64375 243.61354L59.846874 243.61354L59.846874 244.81667L58.64375 244.81667ZM61.05 240.58229Q61.05 239.05104 61.3625 238.12917Q61.675 237.19167 62.284374 236.69167Q62.909374 236.19167 63.846874 236.19167Q64.53438 236.19167 65.05 236.47292Q65.58125 236.75417 65.925 237.28542Q66.26875 237.80104 66.45625 238.55104Q66.64375 239.30104 66.64375 240.58229Q66.64375 242.09792 66.33125 243.01979Q66.03438 243.94167 65.40938 244.45729Q64.8 244.95729 63.846874 244.95729Q62.6125 244.95729 61.89375 244.06667Q61.05 243.00417 61.05 240.58229ZM62.128124 240.58229Q62.128124 242.69167 62.628124 243.39479Q63.128124 244.09792 63.846874 244.09792Q64.58125 244.09792 65.06563 243.39479Q65.56563 242.69167 65.56563 240.58229Q65.56563 238.45729 65.06563 237.76979Q64.58125 237.06667 63.83125 237.06667Q63.1125 237.06667 62.675 237.67604Q62.128124 238.45729 62.128124 240.58229ZM73.59688 243.80104L73.59688 244.81667L67.90938 244.81667Q67.90938 244.44167 68.03438 244.08229Q68.25313 243.50417 68.72188 242.94167Q69.20625 242.37917 70.1125 241.64479Q71.51875 240.48854 72.00313 239.81667Q72.50313 239.14479 72.50313 238.55104Q72.50313 237.92604 72.05 237.50417Q71.59688 237.06667 70.87813 237.06667Q70.1125 237.06667 69.65938 237.51979Q69.20625 237.97292 69.19063 238.78542L68.1125 238.67604Q68.22188 237.45729 68.94063 236.83229Q69.675 236.19167 70.90938 236.19167Q72.14375 236.19167 72.8625 236.87917Q73.58125 237.56667 73.58125 238.58229Q73.58125 239.09792 73.3625 239.59792Q73.15938 240.08229 72.65938 240.64479Q72.175 241.19167 71.05 242.14479Q70.09688 242.94167 69.81563 243.23854Q69.55 243.51979 69.37813 243.80104L73.59688 243.80104Z" fill-rule="nonzero"/><path fill="#000000" d="M51.05 180.94896Q51.05 179.41771 51.3625 178.49583Q51.675 177.55833 52.284374 177.05833Q52.909374 176.55833 53.846874 176.55833Q54.534374 176.55833 55.05 176.83958Q55.58125 177.12083 55.925 177.65208Q56.26875 178.16771 56.45625 178.91771Q56.64375 179.66771 56.64375 180.94896Q56.64375 182.46458 56.33125 183.38646Q56.034374 184.30833 55.409374 184.82396Q54.8 185.32396 53.846874 185.32396Q52.6125 185.32396 51.89375 184.43333Q51.05 183.37083 51.05 180.94896ZM52.128124 180.94896Q52.128124 183.05833 52.628124 183.76146Q53.128124 184.46458 53.846874 184.46458Q54.58125 184.46458 55.065624 183.76146Q55.565624 183.05833 55.565624 180.94896Q55.565624 178.82396 55.065624 178.13646Q54.58125 177.43333 53.83125 177.43333Q53.1125 177.43333 52.675 178.04271Q52.128124 178.82396 52.128124 180.94896ZM58.64375 185.18333L58.64375 183.98021L59.846874 183.98021L59.846874 185.18333L58.64375 185.18333ZM61.05 180.94896Q61.05 179.41771 61.3625 178.49583Q61.675 177.55833 62.284374 177.05833Q62.909374 176.55833 63.846874 176.55833Q64.53438 176.55833 65.05 176.83958Q65.58125 177.12083 65.925 177.65208Q66.26875 178.16771 66.45625 178.91771Q66.64375 179.66771 66.64375 180.94896Q66.64375 182.46458 66.33125 183.38646Q66.03438 184.30833 65.40938 184.82396Q64.8 185.32396 63.846874 185.32396Q62.6125 185.32396 61.89375 184.43333Q61.05 183.37083 61.05 180.94896ZM62.128124 180.94896Q62.128124 183.05833 62.628124 183.76146Q63.128124 184.46458 63.846874 184.46458Q64.58125 184.46458 65.06563 183.76146Q65.56563 183.05833 65.56563 180.94896Q65.56563 178.82396 65.06563 178.13646Q64.58125 177.43333 63.83125 177.43333Q63.1125 177.43333 62.675 178.04271Q62.128124 178.82396 62.128124 180.94896ZM71.425 185.18333L71.425 183.12083L67.70625 183.12083L67.70625 182.15208L71.62813 176.58958L72.4875 176.58958L72.4875 182.15208L73.64375 182.15208L73.64375 183.12083L72.4875 183.12083L72.4875 185.18333L71.425 185.18333ZM71.425 182.15208L71.425 178.29271L68.7375 182.15208L71.425 182.15208Z" fill-rule="nonzero"/><path fill="#000000" d="M51.05 121.31563Q51.05 119.78438 51.3625 118.8625Q51.675 117.925 52.284374 117.425Q52.909374 116.925 53.846874 116.925Q54.534374 116.925 55.05 117.20625Q55.58125 117.4875 55.925 118.01875Q56.26875 118.53438 56.45625 119.28438Q56.64375 120.03438 56.64375 121.31563Q56.64375 122.83125 56.33125 123.75313Q56.034374 124.675 55.409374 125.19063Q54.8 125.69063 53.846874 125.69063Q52.6125 125.69063 51.89375 124.8Q51.05 123.7375 51.05 121.31563ZM52.128124 121.31563Q52.128124 123.425 52.628124 124.12813Q53.128124 124.83125 53.846874 124.83125Q54.58125 124.83125 55.065624 124.12813Q55.565624 123.425 55.565624 121.31563Q55.565624 119.19063 55.065624 118.50313Q54.58125 117.8 53.83125 117.8Q53.1125 117.8 52.675 118.40938Q52.128124 119.19063 52.128124 121.31563ZM58.64375 125.55L58.64375 124.34688L59.846874 124.34688L59.846874 125.55L58.64375 125.55ZM61.05 121.31563Q61.05 119.78438 61.3625 118.8625Q61.675 117.925 62.284374 117.425Q62.909374 116.925 63.846874 116.925Q64.53438 116.925 65.05 117.20625Q65.58125 117.4875 65.925 118.01875Q66.26875 118.53438 66.45625 119.28438Q66.64375 120.03438 66.64375 121.31563Q66.64375 122.83125 66.33125 123.75313Q66.03438 124.675 65.40938 125.19063Q64.8 125.69063 63.846874 125.69063Q62.6125 125.69063 61.89375 124.8Q61.05 123.7375 61.05 121.31563ZM62.128124 121.31563Q62.128124 123.425 62.628124 124.12813Q63.128124 124.83125 63.846874 124.83125Q64.58125 124.83125 65.06563 124.12813Q65.56563 123.425 65.56563 121.31563Q65.56563 119.19063 65.06563 118.50313Q64.58125 117.8 63.83125 117.8Q63.1125 117.8 62.675 118.40938Q62.128124 119.19063 62.128124 121.31563ZM73.51875 119.06563L72.47188 119.14375Q72.33125 118.51875 72.08125 118.2375Q71.64375 117.78438 71.01875 117.78438Q70.51875 117.78438 70.12813 118.06563Q69.64375 118.44063 69.34688 119.14375Q69.06563 119.83125 69.05 121.1125Q69.425 120.53438 69.97188 120.25313Q70.53438 119.97188 71.14375 119.97188Q72.19063 119.97188 72.925 120.75313Q73.675 121.53438 73.675 122.75313Q73.675 123.56563 73.31563 124.26875Q72.97188 124.95625 72.3625 125.33125Q71.75313 125.69063 70.9875 125.69063Q69.65938 125.69063 68.83125 124.72188Q68.00313 123.75313 68.00313 121.53438Q68.00313 119.03438 68.925 117.90938Q69.72188 116.925 71.08125 116.925Q72.09688 116.925 72.7375 117.50313Q73.39375 118.06563 73.51875 119.06563ZM69.22188 122.76875Q69.22188 123.31563 69.44063 123.81563Q69.675 124.3 70.08125 124.56563Q70.50313 124.83125 70.97188 124.83125Q71.62813 124.83125 72.1125 124.3Q72.59688 123.75313 72.59688 122.83125Q72.59688 121.94063 72.1125 121.425Q71.64375 120.90938 70.925 120.90938Q70.20625 120.90938 69.70625 121.425Q69.22188 121.94063 69.22188 122.76875Z" fill-rule="nonzero"/><path fill="#000000" d="M51.05 61.68229Q51.05 60.15104 51.3625 59.229164Q51.675 58.291664 52.284374 57.791664Q52.909374 57.291664 53.846874 57.291664Q54.534374 57.291664 55.05 57.572914Q55.58125 57.854164 55.925 58.385414Q56.26875 58.90104 56.45625 59.65104Q56.64375 60.40104 56.64375 61.68229Q56.64375 63.197914 56.33125 64.11979Q56.034374 65.041664 55.409374 65.55729Q54.8 66.05729 53.846874 66.05729Q52.6125 66.05729 51.89375 65.166664Q51.05 64.104164 51.05 61.68229ZM52.128124 61.68229Q52.128124 63.791664 52.628124 64.49479Q53.128124 65.197914 53.846874 65.197914Q54.58125 65.197914 55.065624 64.49479Q55.565624 63.791664 55.565624 61.68229Q55.565624 59.55729 55.065624 58.86979Q54.58125 58.166664 53.83125 58.166664Q53.1125 58.166664 52.675 58.77604Q52.128124 59.55729 52.128124 61.68229ZM58.64375 65.916664L58.64375 64.71354L59.846874 64.71354L59.846874 65.916664L58.64375 65.916664ZM61.05 61.68229Q61.05 60.15104 61.3625 59.229164Q61.675 58.291664 62.284374 57.791664Q62.909374 57.291664 63.846874 57.291664Q64.53438 57.291664 65.05 57.572914Q65.58125 57.854164 65.925 58.385414Q66.26875 58.90104 66.45625 59.65104Q66.64375 60.40104 66.64375 61.68229Q66.64375 63.197914 66.33125 64.11979Q66.03438 65.041664 65.40938 65.55729Q64.8 66.05729 63.846874 66.05729Q62.6125 66.05729 61.89375 65.166664Q61.05 64.104164 61.05 61.68229ZM62.128124 61.68229Q62.128124 63.791664 62.628124 64.49479Q63.128124 65.197914 63.846874 65.197914Q64.58125 65.197914 65.06563 64.49479Q65.56563 63.791664 65.56563 61.68229Q65.56563 59.55729 65.06563 58.86979Q64.58125 58.166664 63.83125 58.166664Q63.1125 58.166664 62.675 58.77604Q62.128124 59.55729 62.128124 61.68229ZM69.675 61.260414Q69.01875 61.010414 68.69063 60.572914Q68.37813 60.11979 68.37813 59.510414Q68.37813 58.572914 69.05 57.93229Q69.7375 57.291664 70.84688 57.291664Q71.97188 57.291664 72.65938 57.947914Q73.34688 58.604164 73.34688 59.541664Q73.34688 60.135414 73.03438 60.572914Q72.72188 61.010414 72.08125 61.260414Q72.87813 61.510414 73.28438 62.08854Q73.69063 62.666664 73.69063 63.46354Q73.69063 64.55729 72.90938 65.30729Q72.14375 66.05729 70.8625 66.05729Q69.59688 66.05729 68.81563 65.30729Q68.03438 64.55729 68.03438 63.43229Q68.03438 62.58854 68.45625 62.02604Q68.89375 61.46354 69.675 61.260414ZM69.45625 59.46354Q69.45625 60.072914 69.84688 60.46354Q70.25313 60.854164 70.87813 60.854164Q71.4875 60.854164 71.87813 60.479164Q72.26875 60.08854 72.26875 59.52604Q72.26875 58.947914 71.8625 58.55729Q71.45625 58.15104 70.8625 58.15104Q70.25313 58.15104 69.84688 58.541664Q69.45625 58.93229 69.45625 59.46354ZM69.12813 63.43229Q69.12813 63.885414 69.33125 64.30729Q69.55 64.729164 69.97188 64.96354Q70.39375 65.197914 70.87813 65.197914Q71.62813 65.197914 72.1125 64.71354Q72.6125 64.229164 72.6125 63.479164Q72.6125 62.71354 72.1125 62.21354Q71.6125 61.71354 70.84688 61.71354Q70.09688 61.71354 69.6125 62.21354Q69.12813 62.697914 69.12813 63.43229Z" fill-rule="nonzero"/><path fill="#000000" d="M118.68521 316.4344L118.68521 317.45L112.99771 317.45Q112.99771 317.075 113.12271 316.71564Q113.34146 316.1375 113.81021 315.575Q114.294586 315.0125 115.200836 314.27814Q116.607086 313.1219 117.09146 312.45Q117.59146 311.77814 117.59146 311.1844Q117.59146 310.5594 117.138336 310.1375Q116.68521 309.7 115.96646 309.7Q115.200836 309.7 114.74771 310.15314Q114.294586 310.60626 114.27896 311.41876L113.200836 311.3094Q113.31021 310.09064 114.02896 309.46564Q114.763336 308.825 115.99771 308.825Q117.232086 308.825 117.950836 309.5125Q118.669586 310.2 118.669586 311.21564Q118.669586 311.73126 118.450836 312.23126Q118.24771 312.71564 117.74771 313.27814Q117.263336 313.825 116.138336 314.77814Q115.18521 315.575 114.90396 315.8719Q114.638336 316.15314 114.46646 316.4344L118.68521 316.4344Z" fill-rule="nonzero"/><path fill="#000000" d="M234.5692 317.45L234.5692 315.3875L230.85045 315.3875L230.85045 314.41876L234.77232 308.85626L235.6317 308.85626L235.6317 314.41876L236.78795 314.41876L236.78795 315.3875L235.6317 315.3875L235.6317 317.45L234.5692 317.45ZM234.5692 314.41876L234.5692 310.5594L231.8817 314.41876L234.5692 314.41876Z" fill-rule="nonzero"/><path fill="#000000" d="M354.7188 310.96564L353.67194 311.04376Q353.5313 310.41876 353.2813 310.1375Q352.8438 309.6844 352.2188 309.6844Q351.7188 309.6844 351.3282 309.96564Q350.8438 310.34064 350.54694 311.04376Q350.2657 311.73126 350.25006 313.0125Q350.62506 312.4344 351.17194 312.15314Q351.73444 311.8719 352.3438 311.8719Q353.3907 311.8719 354.12506 312.65314Q354.87506 313.4344 354.87506 314.65314Q354.87506 315.46564 354.5157 316.16876Q354.17194 316.85626 353.56256 317.23126Q352.9532 317.59064 352.18756 317.59064Q350.85944 317.59064 350.0313 316.6219Q349.2032 315.65314 349.2032 313.4344Q349.2032 310.9344 350.12506 309.8094Q350.92194 308.825 352.2813 308.825Q353.29694 308.825 353.93756 309.40314Q354.5938 309.96564 354.7188 310.96564ZM350.42194 314.66876Q350.42194 315.21564 350.6407 315.71564Q350.87506 316.2 351.2813 316.46564Q351.7032 316.73126 352.17194 316.73126Q352.8282 316.73126 353.31256 316.2Q353.79694 315.65314 353.79694 314.73126Q353.79694 313.84064 353.31256 313.325Q352.8438 312.8094 352.12506 312.8094Q351.4063 312.8094 350.9063 313.325Q350.42194 313.84064 350.42194 314.66876Z" fill-rule="nonzero"/><path fill="#000000" d="M468.9309 312.79376Q468.27466 312.54376 467.94653 312.10626Q467.63403 311.65314 467.63403 311.04376Q467.63403 310.10626 468.3059 309.46564Q468.9934 308.825 470.10278 308.825Q471.22778 308.825 471.91528 309.48126Q472.60278 310.1375 472.60278 311.075Q472.60278 311.66876 472.29028 312.10626Q471.97778 312.54376 471.33716 312.79376Q472.13403 313.04376 472.54028 313.6219Q472.94653 314.2 472.94653 314.9969Q472.94653 316.09064 472.16528 316.84064Q471.39966 317.59064 470.1184 317.59064Q468.85278 317.59064 468.07153 316.84064Q467.29028 316.09064 467.29028 314.96564Q467.29028 314.1219 467.71216 313.5594Q468.14966 312.9969 468.9309 312.79376ZM468.71216 310.9969Q468.71216 311.60626 469.10278 311.9969Q469.50903 312.3875 470.13403 312.3875Q470.7434 312.3875 471.13403 312.0125Q471.52466 311.6219 471.52466 311.0594Q471.52466 310.48126 471.1184 310.09064Q470.71216 309.6844 470.1184 309.6844Q469.50903 309.6844 469.10278 310.075Q468.71216 310.46564 468.71216 310.9969ZM468.38403 314.96564Q468.38403 315.41876 468.58716 315.84064Q468.8059 316.2625 469.22778 316.4969Q469.64966 316.73126 470.13403 316.73126Q470.88403 316.73126 471.3684 316.2469Q471.8684 315.7625 471.8684 315.0125Q471.8684 314.2469 471.3684 313.7469Q470.8684 313.2469 470.10278 313.2469Q469.35278 313.2469 468.8684 313.7469Q468.38403 314.23126 468.38403 314.96564Z" fill-rule="nonzero"/><path fill="#757575" d="M26.8 30.940624L26.8 29.253124L32.8625 29.2375L32.8625 34.55Q31.45625 35.675 29.971874 36.2375Q28.4875 36.8 26.925 36.8Q24.815624 36.8 23.096874 35.89375Q21.378124 34.9875 20.4875 33.284374Q19.6125 31.565624 19.6125 29.45625Q19.6125 27.3625 20.4875 25.565624Q21.3625 23.753124 23.003124 22.878124Q24.64375 21.9875 26.784374 21.9875Q28.33125 21.9875 29.58125 22.4875Q30.846874 22.9875 31.55 23.89375Q32.26875 24.784374 32.64375 26.2375L30.940624 26.70625Q30.6125 25.6125 30.128124 24.9875Q29.659374 24.3625 28.76875 23.9875Q27.878124 23.6125 26.8 23.6125Q25.4875 23.6125 24.534374 24.003124Q23.596874 24.39375 23.01875 25.05Q22.440624 25.690624 22.1125 26.45625Q21.565624 27.784374 21.565624 29.346874Q21.565624 31.253124 22.221874 32.55Q22.89375 33.83125 24.14375 34.45625Q25.409374 35.08125 26.815624 35.08125Q28.05 35.08125 29.221874 34.6125Q30.39375 34.14375 31.003124 33.596874L31.003124 30.940624L26.8 30.940624ZM35.846874 36.55L35.846874 26.175L37.425 26.175L37.425 27.753124Q38.034374 26.64375 38.55 26.3Q39.065624 25.940624 39.675 25.940624Q40.565624 25.940624 41.4875 26.503124L40.878124 28.14375Q40.2375 27.753124 39.596874 27.753124Q39.01875 27.753124 38.55 28.1125Q38.096874 28.45625 37.89375 29.065624Q37.6125 30.003124 37.6125 31.1125L37.6125 36.55L35.846874 36.55ZM49.64375 35.26875Q48.659374 36.096874 47.753124 36.440624Q46.846874 36.784374 45.815624 36.784374Q44.1125 36.784374 43.190624 35.95625Q42.26875 35.1125 42.26875 33.815624Q42.26875 33.05 42.6125 32.425Q42.971874 31.8 43.534374 31.425Q44.096874 31.034374 44.8 30.83125Q45.315624 30.70625 46.3625 30.565624Q48.4875 30.315624 49.4875 29.971874Q49.503124 29.6125 49.503124 29.503124Q49.503124 28.440624 49.003124 27.9875Q48.33125 27.39375 47.003124 27.39375Q45.753124 27.39375 45.159374 27.83125Q44.58125 28.26875 44.3 29.378124L42.58125 29.14375Q42.815624 28.034374 43.346874 27.3625Q43.878124 26.675 44.89375 26.315624Q45.909374 25.940624 47.253124 25.940624Q48.58125 25.940624 49.409374 26.253124Q50.2375 26.565624 50.628124 27.05Q51.01875 27.51875 51.175 28.2375Q51.26875 28.690624 51.26875 29.8625L51.26875 32.20625Q51.26875 34.659374 51.378124 35.315624Q51.4875 35.95625 51.83125 36.55L49.9875 36.55Q49.721874 36.003124 49.64375 35.26875ZM49.4875 31.346874Q48.534374 31.7375 46.6125 32.003124Q45.534374 32.159374 45.08125 32.3625Q44.64375 32.55 44.39375 32.925Q44.14375 33.3 44.14375 33.76875Q44.14375 34.471874 44.675 34.940624Q45.20625 35.409374 46.2375 35.409374Q47.253124 35.409374 48.034374 34.971874Q48.83125 34.51875 49.20625 33.753124Q49.4875 33.14375 49.4875 31.9875L49.4875 31.346874ZM54.284374 36.55L54.284374 27.55L52.7375 27.55L52.7375 26.175L54.284374 26.175L54.284374 25.08125Q54.284374 24.034374 54.471874 23.51875Q54.721874 22.83125 55.3625 22.409374Q56.003124 21.9875 57.159374 21.9875Q57.909374 21.9875 58.8 22.159374L58.534374 23.690624Q57.9875 23.596874 57.503124 23.596874Q56.70625 23.596874 56.3625 23.940624Q56.034374 24.284374 56.034374 25.221874L56.034374 26.175L58.065624 26.175L58.065624 27.55L56.034374 27.55L56.034374 36.55L54.284374 36.55ZM59.878124 24.253124L59.878124 22.2375L61.64375 22.2375L61.64375 24.253124L59.878124 24.253124ZM59.878124 36.55L59.878124 26.175L61.64375 26.175L61.64375 36.55L59.878124 36.55ZM63.878124 36.55L63.878124 22.2375L65.64375 22.2375L65.64375 30.39375L69.8 26.175L72.06563 26.175L68.1125 30.01875L72.47188 36.55L70.3 36.55L66.87813 31.253124L65.64375 32.440624L65.64375 36.55L63.878124 36.55ZM79.90938 40.51875L79.90938 22.2375L83.78438 22.2375L83.78438 23.690624L81.65938 23.690624L81.65938 39.065624L83.78438 39.065624L83.78438 40.51875L79.90938 40.51875ZM86.01875 36.55L86.01875 22.2375L87.90938 22.2375L87.90938 29.33125L95.01875 22.2375L97.58125 22.2375L91.58125 28.034374L97.84688 36.55L95.34688 36.55L90.25313 29.3L87.90938 31.58125L87.90938 36.55L86.01875 36.55ZM105.97188 33.20625L107.78438 33.440624Q107.3625 35.01875 106.19063 35.909374Q105.03438 36.784374 103.22188 36.784374Q100.95625 36.784374 99.6125 35.39375Q98.28438 33.9875 98.28438 31.45625Q98.28438 28.83125 99.62813 27.39375Q100.97188 25.940624 103.12813 25.940624Q105.20625 25.940624 106.51875 27.3625Q107.84688 28.76875 107.84688 31.346874Q107.84688 31.503124 107.83125 31.815624L100.09688 31.815624Q100.19063 33.51875 101.06563 34.425Q101.94063 35.33125 103.2375 35.33125Q104.20625 35.33125 104.87813 34.83125Q105.56563 34.315624 105.97188 33.20625ZM100.19063 30.3625L105.9875 30.3625Q105.87813 29.065624 105.33125 28.409374Q104.4875 27.39375 103.14375 27.39375Q101.94063 27.39375 101.1125 28.20625Q100.28438 29.003124 100.19063 30.3625ZM116.64375 32.753124L118.3625 32.971874Q118.08125 34.76875 116.90938 35.784374Q115.75313 36.784374 114.05 36.784374Q111.925 36.784374 110.62813 35.39375Q109.33125 34.003124 109.33125 31.409374Q109.33125 29.721874 109.87813 28.471874Q110.44063 27.20625 111.58125 26.58125Q112.72188 25.940624 114.06563 25.940624Q115.75313 25.940624 116.81563 26.8Q117.89375 27.659374 118.20625 29.221874L116.4875 29.4875Q116.25313 28.440624 115.62813 27.925Q115.00313 27.39375 114.12813 27.39375Q112.8 27.39375 111.97188 28.346874Q111.14375 29.3 111.14375 31.346874Q111.14375 33.440624 111.94063 34.39375Q112.7375 35.33125 114.03438 35.33125Q115.06563 35.33125 115.75313 34.70625Q116.45625 34.065624 116.64375 32.753124ZM126.97188 33.20625L128.78438 33.440624Q128.3625 35.01875 127.19063 35.909374Q126.03438 36.784374 124.22188 36.784374Q121.95625 36.784374 120.6125 35.39375Q119.28438 33.9875 119.28438 31.45625Q119.28438 28.83125 120.62813 27.39375Q121.97188 25.940624 124.12813 25.940624Q126.20625 25.940624 127.51875 27.3625Q128.84688 28.76875 128.84688 31.346874Q128.84688 31.503124 128.83125 31.815624L121.09688 31.815624Q121.19063 33.51875 122.06563 34.425Q122.94063 35.33125 124.2375 35.33125Q125.20625 35.33125 125.87813 34.83125Q126.56563 34.315624 126.97188 33.20625ZM121.19063 30.3625L126.9875 30.3625Q126.87813 29.065624 126.33125 28.409374Q125.4875 27.39375 124.14375 27.39375Q122.94063 27.39375 122.1125 28.20625Q121.28438 29.003124 121.19063 30.3625ZM130.8625 40.51875L130.8625 26.175L132.47188 26.175L132.47188 27.51875Q133.03438 26.7375 133.7375 26.346874Q134.45625 25.940624 135.47188 25.940624Q136.8 25.940624 137.81563 26.628124Q138.83125 27.315624 139.34688 28.565624Q139.87813 29.8 139.87813 31.284374Q139.87813 32.878124 139.3 34.159374Q138.7375 35.425 137.64375 36.1125Q136.55 36.784374 135.34688 36.784374Q134.47188 36.784374 133.76875 36.409374Q133.08125 36.034374 132.62813 35.471874L132.62813 40.51875L130.8625 40.51875ZM132.45625 31.425Q132.45625 33.425 133.26875 34.378124Q134.08125 35.33125 135.2375 35.33125Q136.40938 35.33125 137.2375 34.346874Q138.08125 33.3625 138.08125 31.26875Q138.08125 29.3 137.25313 28.315624Q136.44063 27.315624 135.31563 27.315624Q134.19063 27.315624 133.31563 28.378124Q132.45625 29.425 132.45625 31.425ZM148.64375 35.26875Q147.65938 36.096874 146.75313 36.440624Q145.84688 36.784374 144.81563 36.784374Q143.1125 36.784374 142.19063 35.95625Q141.26875 35.1125 141.26875 33.815624Q141.26875 33.05 141.6125 32.425Q141.97188 31.8 142.53438 31.425Q143.09688 31.034374 143.8 30.83125Q144.31563 30.70625 145.3625 30.565624Q147.4875 30.315624 148.4875 29.971874Q148.50313 29.6125 148.50313 29.503124Q148.50313 28.440624 148.00313 27.9875Q147.33125 27.39375 146.00313 27.39375Q144.75313 27.39375 144.15938 27.83125Q143.58125 28.26875 143.3 29.378124L141.58125 29.14375Q141.81563 28.034374 142.34688 27.3625Q142.87813 26.675 143.89375 26.315624Q144.90938 25.940624 146.25313 25.940624Q147.58125 25.940624 148.40938 26.253124Q149.2375 26.565624 149.62813 27.05Q150.01875 27.51875 150.175 28.2375Q150.26875 28.690624 150.26875 29.8625L150.26875 32.20625Q150.26875 34.659374 150.37813 35.315624Q150.4875 35.95625 150.83125 36.55L148.9875 36.55Q148.72188 36.003124 148.64375 35.26875ZM148.4875 31.346874Q147.53438 31.7375 145.6125 32.003124Q144.53438 32.159374 144.08125 32.3625Q143.64375 32.55 143.39375 32.925Q143.14375 33.3 143.14375 33.76875Q143.14375 34.471874 143.675 34.940624Q144.20625 35.409374 145.2375 35.409374Q146.25313 35.409374 147.03438 34.971874Q147.83125 34.51875 148.20625 33.753124Q148.4875 33.14375 148.4875 31.9875L148.4875 31.346874ZM156.70625 34.971874L156.95625 36.534374Q156.22188 36.690624 155.62813 36.690624Q154.675 36.690624 154.14375 36.39375Q153.62813 36.08125 153.40938 35.596874Q153.19063 35.096874 153.19063 33.51875L153.19063 27.55L151.90938 27.55L151.90938 26.175L153.19063 26.175L153.19063 23.6125L154.94063 22.55L154.94063 26.175L156.70625 26.175L156.70625 27.55L154.94063 27.55L154.94063 33.6125Q154.94063 34.3625 155.03438 34.58125Q155.12813 34.784374 155.33125 34.925Q155.55 35.05 155.94063 35.05Q156.22188 35.05 156.70625 34.971874ZM165.64375 35.26875Q164.65938 36.096874 163.75313 36.440624Q162.84688 36.784374 161.81563 36.784374Q160.1125 36.784374 159.19063 35.95625Q158.26875 35.1125 158.26875 33.815624Q158.26875 33.05 158.6125 32.425Q158.97188 31.8 159.53438 31.425Q160.09688 31.034374 160.8 30.83125Q161.31563 30.70625 162.3625 30.565624Q164.4875 30.315624 165.4875 29.971874Q165.50313 29.6125 165.50313 29.503124Q165.50313 28.440624 165.00313 27.9875Q164.33125 27.39375 163.00313 27.39375Q161.75313 27.39375 161.15938 27.83125Q160.58125 28.26875 160.3 29.378124L158.58125 29.14375Q158.81563 28.034374 159.34688 27.3625Q159.87813 26.675 160.89375 26.315624Q161.90938 25.940624 163.25313 25.940624Q164.58125 25.940624 165.40938 26.253124Q166.2375 26.565624 166.62813 27.05Q167.01875 27.51875 167.175 28.2375Q167.26875 28.690624 167.26875 29.8625L167.26875 32.20625Q167.26875 34.659374 167.37813 35.315624Q167.4875 35.95625 167.83125 36.55L165.9875 36.55Q165.72188 36.003124 165.64375 35.26875ZM165.4875 31.346874Q164.53438 31.7375 162.6125 32.003124Q161.53438 32.159374 161.08125 32.3625Q160.64375 32.55 160.39375 32.925Q160.14375 33.3 160.14375 33.76875Q160.14375 34.471874 160.675 34.940624Q161.20625 35.409374 162.2375 35.409374Q163.25313 35.409374 164.03438 34.971874Q164.83125 34.51875 165.20625 33.753124Q165.4875 33.14375 165.4875 31.9875L165.4875 31.346874ZM169.8625 36.55L169.8625 26.175L171.45625 26.175L171.45625 27.659374Q172.59688 25.940624 174.75313 25.940624Q175.69063 25.940624 176.47188 26.284374Q177.26875 26.6125 177.65938 27.159374Q178.05 27.70625 178.20625 28.45625Q178.3 28.95625 178.3 30.175L178.3 36.55L176.53438 36.55L176.53438 30.2375Q176.53438 29.159374 176.33125 28.628124Q176.12813 28.096874 175.59688 27.784374Q175.08125 27.471874 174.37813 27.471874Q173.25313 27.471874 172.44063 28.190624Q171.62813 28.89375 171.62813 30.878124L171.62813 36.55L169.8625 36.55ZM178.55 36.8L182.70625 21.9875L184.1125 21.9875L179.97188 36.8L178.55 36.8ZM186.01875 36.55L186.01875 22.2375L187.90938 22.2375L187.90938 29.33125L195.01875 22.2375L197.58125 22.2375L191.58125 28.034374L197.84688 36.55L195.34688 36.55L190.25313 29.3L187.90938 31.58125L187.90938 36.55L186.01875 36.55ZM205.97188 33.20625L207.78438 33.440624Q207.3625 35.01875 206.19063 35.909374Q205.03438 36.784374 203.22188 36.784374Q200.95625 36.784374 199.6125 35.39375Q198.28438 33.9875 198.28438 31.45625Q198.28438 28.83125 199.62813 27.39375Q200.97188 25.940624 203.12813 25.940624Q205.20625 25.940624 206.51875 27.3625Q207.84688 28.76875 207.84688 31.346874Q207.84688 31.503124 207.83125 31.815624L200.09688 31.815624Q200.19063 33.51875 201.06563 34.425Q201.94063 35.33125 203.2375 35.33125Q204.20625 35.33125 204.87813 34.83125Q205.56563 34.315624 205.97188 33.20625ZM200.19063 30.3625L205.9875 30.3625Q205.87813 29.065624 205.33125 28.409374Q204.4875 27.39375 203.14375 27.39375Q201.94063 27.39375 201.1125 28.20625Q200.28438 29.003124 200.19063 30.3625ZM216.64375 32.753124L218.3625 32.971874Q218.08125 34.76875 216.90938 35.784374Q215.75313 36.784374 214.05 36.784374Q211.925 36.784374 210.62813 35.39375Q209.33125 34.003124 209.33125 31.409374Q209.33125 29.721874 209.87813 28.471874Q210.44063 27.20625 211.58125 26.58125Q212.72188 25.940624 214.06563 25.940624Q215.75313 25.940624 216.81563 26.8Q217.89375 27.659374 218.20625 29.221874L216.4875 29.4875Q216.25313 28.440624 215.62813 27.925Q215.00313 27.39375 214.12813 27.39375Q212.8 27.39375 211.97188 28.346874Q211.14375 29.3 211.14375 31.346874Q211.14375 33.440624 211.94063 34.39375Q212.7375 35.33125 214.03438 35.33125Q215.06563 35.33125 215.75313 34.70625Q216.45625 34.065624 216.64375 32.753124ZM226.97188 33.20625L228.78438 33.440624Q228.3625 35.01875 227.19063 35.909374Q226.03438 36.784374 224.22188 36.784374Q221.95625 36.784374 220.6125 35.39375Q219.28438 33.9875 219.28438 31.45625Q219.28438 28.83125 220.62813 27.39375Q221.97188 25.940624 224.12813 25.940624Q226.20625 25.940624 227.51875 27.3625Q228.84688 28.76875 228.84688 31.346874Q228.84688 31.503124 228.83125 31.815624L221.09688 31.815624Q221.19063 33.51875 222.06563 34.425Q222.94063 35.33125 224.2375 35.33125Q225.20625 35.33125 225.87813 34.83125Q226.56563 34.315624 226.97188 33.20625ZM221.19063 30.3625L226.9875 30.3625Q226.87813 29.065624 226.33125 28.409374Q225.4875 27.39375 224.14375 27.39375Q222.94063 27.39375 222.1125 28.20625Q221.28438 29.003124 221.19063 30.3625ZM230.8625 40.51875L230.8625 26.175L232.47188 26.175L232.47188 27.51875Q233.03438 26.7375 233.7375 26.346874Q234.45625 25.940624 235.47188 25.940624Q236.8 25.940624 237.81563 26.628124Q238.83125 27.315624 239.34688 28.565624Q239.87813 29.8 239.87813 31.284374Q239.87813 32.878124 239.3 34.159374Q238.7375 35.425 237.64375 36.1125Q236.55 36.784374 235.34688 36.784374Q234.47188 36.784374 233.76875 36.409374Q233.08125 36.034374 232.62813 35.471874L232.62813 40.51875L230.8625 40.51875ZM232.45625 31.425Q232.45625 33.425 233.26875 34.378124Q234.08125 35.33125 235.2375 35.33125Q236.40938 35.33125 237.2375 34.346874Q238.08125 33.3625 238.08125 31.26875Q238.08125 29.3 237.25313 28.315624Q236.44063 27.315624 235.31563 27.315624Q234.19063 27.315624 233.31563 28.378124Q232.45625 29.425 232.45625 31.425ZM248.64375 35.26875Q247.65938 36.096874 246.75313 36.440624Q245.84688 36.784374 244.81563 36.784374Q243.1125 36.784374 242.19063 35.95625Q241.26875 35.1125 241.26875 33.815624Q241.26875 33.05 241.6125 32.425Q241.97188 31.8 242.53438 31.425Q243.09688 31.034374 243.8 30.83125Q244.31563 30.70625 245.3625 30.565624Q247.4875 30.315624 248.4875 29.971874Q248.50313 29.6125 248.50313 29.503124Q248.50313 28.440624 248.00313 27.9875Q247.33125 27.39375 246.00313 27.39375Q244.75313 27.39375 244.15938 27.83125Q243.58125 28.26875 243.3 29.378124L241.58125 29.14375Q241.81563 28.034374 242.34688 27.3625Q242.87813 26.675 243.89375 26.315624Q244.90938 25.940624 246.25313 25.940624Q247.58125 25.940624 248.40938 26.253124Q249.2375 26.565624 249.62813 27.05Q250.01875 27.51875 250.175 28.2375Q250.26875 28.690624 250.26875 29.8625L250.26875 32.20625Q250.26875 34.659374 250.37813 35.315624Q250.4875 35.95625 250.83125 36.55L248.9875 36.55Q248.72188 36.003124 248.64375 35.26875ZM248.4875 31.346874Q247.53438 31.7375 245.6125 32.003124Q244.53438 32.159374 244.08125 32.3625Q243.64375 32.55 243.39375 32.925Q243.14375 33.3 243.14375 33.76875Q243.14375 34.471874 243.675 34.940624Q244.20625 35.409374 245.2375 35.409374Q246.25313 35.409374 247.03438 34.971874Q247.83125 34.51875 248.20625 33.753124Q248.4875 33.14375 248.4875 31.9875L248.4875 31.346874ZM256.70624 34.971874L256.95624 36.534374Q256.22186 36.690624 255.62813 36.690624Q254.675 36.690624 254.14375 36.39375Q253.62813 36.08125 253.40938 35.596874Q253.19063 35.096874 253.19063 33.51875L253.19063 27.55L251.90938 27.55L251.90938 26.175L253.19063 26.175L253.19063 23.6125L254.94063 22.55L254.94063 26.175L256.70624 26.175L256.70624 27.55L254.94063 27.55L254.94063 33.6125Q254.94063 34.3625 255.03438 34.58125Q255.12813 34.784374 255.33125 34.925Q255.55 35.05 255.94063 35.05Q256.22186 35.05 256.70624 34.971874ZM265.64374 35.26875Q264.65936 36.096874 263.7531 36.440624Q262.84686 36.784374 261.8156 36.784374Q260.1125 36.784374 259.1906 35.95625Q258.26874 35.1125 258.26874 33.815624Q258.26874 33.05 258.6125 32.425Q258.97186 31.8 259.53436 31.425Q260.09686 31.034374 260.8 30.83125Q261.3156 30.70625 262.3625 30.565624Q264.4875 30.315624 265.4875 29.971874Q265.5031 29.6125 265.5031 29.503124Q265.5031 28.440624 265.0031 27.9875Q264.33124 27.39375 263.0031 27.39375Q261.7531 27.39375 261.15936 27.83125Q260.58124 28.26875 260.3 29.378124L258.58124 29.14375Q258.8156 28.034374 259.34686 27.3625Q259.8781 26.675 260.89374 26.315624Q261.90936 25.940624 263.2531 25.940624Q264.58124 25.940624 265.40936 26.253124Q266.2375 26.565624 266.6281 27.05Q267.01874 27.51875 267.175 28.2375Q267.26874 28.690624 267.26874 29.8625L267.26874 32.20625Q267.26874 34.659374 267.3781 35.315624Q267.4875 35.95625 267.83124 36.55L265.9875 36.55Q265.72186 36.003124 265.64374 35.26875ZM265.4875 31.346874Q264.53436 31.7375 262.6125 32.003124Q261.53436 32.159374 261.08124 32.3625Q260.64374 32.55 260.39374 32.925Q260.14374 33.3 260.14374 33.76875Q260.14374 34.471874 260.675 34.940624Q261.20624 35.409374 262.2375 35.409374Q263.2531 35.409374 264.03436 34.971874Q264.83124 34.51875 265.20624 33.753124Q265.4875 33.14375 265.4875 31.9875L265.4875 31.346874ZM269.8625 36.55L269.8625 26.175L271.45624 26.175L271.45624 27.659374Q272.59686 25.940624 274.7531 25.940624Q275.6906 25.940624 276.47186 26.284374Q277.26874 26.6125 277.65936 27.159374Q278.05 27.70625 278.20624 28.45625Q278.3 28.95625 278.3 30.175L278.3 36.55L276.53436 36.55L276.53436 30.2375Q276.53436 29.159374 276.33124 28.628124Q276.1281 28.096874 275.59686 27.784374Q275.08124 27.471874 274.3781 27.471874Q273.2531 27.471874 272.4406 28.190624Q271.6281 28.89375 271.6281 30.878124L271.6281 36.55L269.8625 36.55ZM296.3156 31.534374L298.20624 32.003124Q297.6125 34.346874 296.0656 35.58125Q294.51874 36.8 292.26874 36.8Q289.95624 36.8 288.5031 35.8625Q287.0656 34.909374 286.3 33.128124Q285.55 31.33125 285.55 29.284374Q285.55 27.05 286.39374 25.39375Q287.2531 23.721874 288.83124 22.8625Q290.40936 21.9875 292.3 21.9875Q294.45624 21.9875 295.90936 23.08125Q297.3781 24.175 297.95624 26.159374L296.09686 26.596874Q295.59686 25.034374 294.64374 24.33125Q293.70624 23.6125 292.26874 23.6125Q290.6125 23.6125 289.5031 24.409374Q288.39374 25.190624 287.9406 26.534374Q287.5031 27.8625 287.5031 29.26875Q287.5031 31.096874 288.03436 32.471874Q288.5656 33.83125 289.6906 34.503124Q290.8156 35.175 292.1125 35.175Q293.70624 35.175 294.8156 34.253124Q295.925 33.33125 296.3156 31.534374ZM306.64374 35.26875Q305.65936 36.096874 304.7531 36.440624Q303.84686 36.784374 302.8156 36.784374Q301.1125 36.784374 300.1906 35.95625Q299.26874 35.1125 299.26874 33.815624Q299.26874 33.05 299.6125 32.425Q299.97186 31.8 300.53436 31.425Q301.09686 31.034374 301.8 30.83125Q302.3156 30.70625 303.3625 30.565624Q305.4875 30.315624 306.4875 29.971874Q306.5031 29.6125 306.5031 29.503124Q306.5031 28.440624 306.0031 27.9875Q305.33124 27.39375 304.0031 27.39375Q302.7531 27.39375 302.15936 27.83125Q301.58124 28.26875 301.3 29.378124L299.58124 29.14375Q299.8156 28.034374 300.34686 27.3625Q300.8781 26.675 301.89374 26.315624Q302.90936 25.940624 304.2531 25.940624Q305.58124 25.940624 306.40936 26.253124Q307.2375 26.565624 307.6281 27.05Q308.01874 27.51875 308.175 28.2375Q308.26874 28.690624 308.26874 29.8625L308.26874 32.20625Q308.26874 34.659374 308.3781 35.315624Q308.4875 35.95625 308.83124 36.55L306.9875 36.55Q306.72186 36.003124 306.64374 35.26875ZM306.4875 31.346874Q305.53436 31.7375 303.6125 32.003124Q302.53436 32.159374 302.08124 32.3625Q301.64374 32.55 301.39374 32.925Q301.14374 33.3 301.14374 33.76875Q301.14374 34.471874 301.675 34.940624Q302.20624 35.409374 303.2375 35.409374Q304.2531 35.409374 305.03436 34.971874Q305.83124 34.51875 306.20624 33.753124Q306.4875 33.14375 306.4875 31.9875L306.4875 31.346874ZM310.8625 36.55L310.8625 22.2375L312.6281 22.2375L312.6281 27.3625Q313.8625 25.940624 315.7375 25.940624Q316.8781 25.940624 317.72186 26.39375Q318.58124 26.846874 318.9406 27.659374Q319.3156 28.45625 319.3156 29.971874L319.3156 36.55L317.5656 36.55L317.5656 29.971874Q317.5656 28.659374 316.9875 28.065624Q316.40936 27.45625 315.3781 27.45625Q314.59686 27.45625 313.89374 27.8625Q313.20624 28.26875 312.90936 28.971874Q312.6281 29.659374 312.6281 30.878124L312.6281 36.55L310.8625 36.55ZM327.64374 35.26875Q326.65936 36.096874 325.7531 36.440624Q324.84686 36.784374 323.8156 36.784374Q322.1125 36.784374 321.1906 35.95625Q320.26874 35.1125 320.26874 33.815624Q320.26874 33.05 320.6125 32.425Q320.97186 31.8 321.53436 31.425Q322.09686 31.034374 322.8 30.83125Q323.3156 30.70625 324.3625 30.565624Q326.4875 30.315624 327.4875 29.971874Q327.5031 29.6125 327.5031 29.503124Q327.5031 28.440624 327.0031 27.9875Q326.33124 27.39375 325.0031 27.39375Q323.7531 27.39375 323.15936 27.83125Q322.58124 28.26875 322.3 29.378124L320.58124 29.14375Q320.8156 28.034374 321.34686 27.3625Q321.8781 26.675 322.89374 26.315624Q323.90936 25.940624 325.2531 25.940624Q326.58124 25.940624 327.40936 26.253124Q328.2375 26.565624 328.6281 27.05Q329.01874 27.51875 329.175 28.2375Q329.26874 28.690624 329.26874 29.8625L329.26874 32.20625Q329.26874 34.659374 329.3781 35.315624Q329.4875 35.95625 329.83124 36.55L327.9875 36.55Q327.72186 36.003124 327.64374 35.26875ZM327.4875 31.346874Q326.53436 31.7375 324.6125 32.003124Q323.53436 32.159374 323.08124 32.3625Q322.64374 32.55 322.39374 32.925Q322.14374 33.3 322.14374 33.76875Q322.14374 34.471874 322.675 34.940624Q323.20624 35.409374 324.2375 35.409374Q325.2531 35.409374 326.03436 34.971874Q326.83124 34.51875 327.20624 33.753124Q327.4875 33.14375 327.4875 31.9875L327.4875 31.346874ZM331.78436 40.55L331.59686 38.89375Q332.175 39.05 332.59686 39.05Q333.1906 39.05 333.53436 38.846874Q333.89374 38.659374 334.1125 38.315624Q334.28436 38.05 334.65936 37.003124Q334.70624 36.846874 334.8156 36.565624L330.8781 26.175L332.76874 26.175L334.925 32.190624Q335.34686 33.33125 335.675 34.58125Q335.9875 33.378124 336.39374 32.221874L338.6125 26.175L340.3781 26.175L336.425 36.721874Q335.8 38.440624 335.4406 39.08125Q334.97186 39.95625 334.3625 40.346874Q333.76874 40.753124 332.925 40.753124Q332.40936 40.753124 331.78436 40.55ZM348.64374 35.26875Q347.65936 36.096874 346.7531 36.440624Q345.84686 36.784374 344.8156 36.784374Q343.1125 36.784374 342.1906 35.95625Q341.26874 35.1125 341.26874 33.815624Q341.26874 33.05 341.6125 32.425Q341.97186 31.8 342.53436 31.425Q343.09686 31.034374 343.8 30.83125Q344.3156 30.70625 345.3625 30.565624Q347.4875 30.315624 348.4875 29.971874Q348.5031 29.6125 348.5031 29.503124Q348.5031 28.440624 348.0031 27.9875Q347.33124 27.39375 346.0031 27.39375Q344.7531 27.39375 344.15936 27.83125Q343.58124 28.26875 343.3 29.378124L341.58124 29.14375Q341.8156 28.034374 342.34686 27.3625Q342.8781 26.675 343.89374 26.315624Q344.90936 25.940624 346.2531 25.940624Q347.58124 25.940624 348.40936 26.253124Q349.2375 26.565624 349.6281 27.05Q350.01874 27.51875 350.175 28.2375Q350.26874 28.690624 350.26874 29.8625L350.26874 32.20625Q350.26874 34.659374 350.3781 35.315624Q350.4875 35.95625 350.83124 36.55L348.9875 36.55Q348.72186 36.003124 348.64374 35.26875ZM348.4875 31.346874Q347.53436 31.7375 345.6125 32.003124Q344.53436 32.159374 344.08124 32.3625Q343.64374 32.55 343.39374 32.925Q343.14374 33.3 343.14374 33.76875Q343.14374 34.471874 343.675 34.940624Q344.20624 35.409374 345.2375 35.409374Q346.2531 35.409374 347.03436 34.971874Q347.83124 34.51875 348.20624 33.753124Q348.4875 33.14375 348.4875 31.9875L348.4875 31.346874ZM355.8156 40.51875L351.925 40.51875L351.925 39.065624L354.05 39.065624L354.05 23.690624L351.925 23.690624L351.925 22.2375L355.8156 22.2375L355.8156 40.51875ZM367.7531 36.55L363.8 26.175L365.65936 26.175L367.89374 32.39375Q368.2531 33.39375 368.55 34.471874Q368.78436 33.659374 369.20624 32.503124L371.5031 26.175L373.3156 26.175L369.39374 36.55L367.7531 36.55ZM373.15936 33.45625L374.90936 33.175Q375.05 34.221874 375.72186 34.784374Q376.39374 35.33125 377.59686 35.33125Q378.8 35.33125 379.3781 34.846874Q379.97186 34.346874 379.97186 33.690624Q379.97186 33.096874 379.45624 32.753124Q379.09686 32.51875 377.65936 32.159374Q375.72186 31.659374 374.97186 31.315624Q374.2375 30.95625 373.84686 30.33125Q373.45624 29.690624 373.45624 28.925Q373.45624 28.2375 373.76874 27.64375Q374.09686 27.05 374.64374 26.659374Q375.05 26.3625 375.7531 26.159374Q376.47186 25.940624 377.28436 25.940624Q378.5031 25.940624 379.425 26.3Q380.34686 26.64375 380.78436 27.253124Q381.22186 27.846874 381.39374 28.846874L379.675 29.08125Q379.55 28.284374 378.9875 27.846874Q378.425 27.39375 377.40936 27.39375Q376.1906 27.39375 375.675 27.8Q375.15936 28.190624 375.15936 28.721874Q375.15936 29.065624 375.3781 29.346874Q375.58124 29.628124 376.05 29.815624Q376.3156 29.909374 377.59686 30.253124Q379.47186 30.753124 380.20624 31.08125Q380.9406 31.39375 381.3625 32.003124Q381.78436 32.596874 381.78436 33.503124Q381.78436 34.378124 381.26874 35.159374Q380.7531 35.940624 379.78436 36.3625Q378.8156 36.784374 377.59686 36.784374Q375.58124 36.784374 374.51874 35.940624Q373.45624 35.096874 373.15936 33.45625ZM393.7375 36.55L393.7375 23.925L389.01874 23.925L389.01874 22.2375L400.3625 22.2375L400.3625 23.925L395.6281 23.925L395.6281 36.55L393.7375 36.55ZM408.97186 33.20625L410.78436 33.440624Q410.3625 35.01875 409.1906 35.909374Q408.03436 36.784374 406.22186 36.784374Q403.95624 36.784374 402.6125 35.39375Q401.28436 33.9875 401.28436 31.45625Q401.28436 28.83125 402.6281 27.39375Q403.97186 25.940624 406.1281 25.940624Q408.20624 25.940624 409.51874 27.3625Q410.84686 28.76875 410.84686 31.346874Q410.84686 31.503124 410.83124 31.815624L403.09686 31.815624Q403.1906 33.51875 404.0656 34.425Q404.9406 35.33125 406.2375 35.33125Q407.20624 35.33125 407.8781 34.83125Q408.5656 34.315624 408.97186 33.20625ZM403.1906 30.3625L408.9875 30.3625Q408.8781 29.065624 408.33124 28.409374Q407.4875 27.39375 406.14374 27.39375Q404.9406 27.39375 404.1125 28.20625Q403.28436 29.003124 403.1906 30.3625ZM412.55 37.409374L414.2531 37.659374Q414.3625 38.45625 414.84686 38.815624Q415.5031 39.3 416.64374 39.3Q417.8625 39.3 418.51874 38.815624Q419.1906 38.33125 419.425 37.45625Q419.5656 36.909374 419.55 35.190624Q418.39374 36.55 416.675 36.55Q414.53436 36.55 413.3625 35.003124Q412.1906 33.45625 412.1906 31.3Q412.1906 29.815624 412.72186 28.565624Q413.26874 27.315624 414.28436 26.628124Q415.3156 25.940624 416.6906 25.940624Q418.51874 25.940624 419.72186 27.425L419.72186 26.175L421.33124 26.175L421.33124 35.14375Q421.33124 37.565624 420.83124 38.565624Q420.34686 39.58125 419.26874 40.159374Q418.20624 40.753124 416.64374 40.753124Q414.8 40.753124 413.64374 39.925Q412.5031 39.096874 412.55 37.409374ZM414.0031 31.175Q414.0031 33.221874 414.8156 34.159374Q415.6281 35.096874 416.84686 35.096874Q418.05 35.096874 418.8625 34.159374Q419.6906 33.221874 419.6906 31.2375Q419.6906 29.33125 418.84686 28.3625Q418.0031 27.39375 416.8156 27.39375Q415.64374 27.39375 414.8156 28.346874Q414.0031 29.3 414.0031 31.175ZM430.64374 35.26875Q429.65936 36.096874 428.7531 36.440624Q427.84686 36.784374 426.8156 36.784374Q425.1125 36.784374 424.1906 35.95625Q423.26874 35.1125 423.26874 33.815624Q423.26874 33.05 423.6125 32.425Q423.97186 31.8 424.53436 31.425Q425.09686 31.034374 425.8 30.83125Q426.3156 30.70625 427.3625 30.565624Q429.4875 30.315624 430.4875 29.971874Q430.5031 29.6125 430.5031 29.503124Q430.5031 28.440624 430.0031 27.9875Q429.33124 27.39375 428.0031 27.39375Q426.7531 27.39375 426.15936 27.83125Q425.58124 28.26875 425.3 29.378124L423.58124 29.14375Q423.8156 28.034374 424.34686 27.3625Q424.8781 26.675 425.89374 26.315624Q426.90936 25.940624 428.2531 25.940624Q429.58124 25.940624 430.40936 26.253124Q431.2375 26.565624 431.6281 27.05Q432.01874 27.51875 432.175 28.2375Q432.26874 28.690624 432.26874 29.8625L432.26874 32.20625Q432.26874 34.659374 432.3781 35.315624Q432.4875 35.95625 432.83124 36.55L430.9875 36.55Q430.72186 36.003124 430.64374 35.26875ZM430.4875 31.346874Q429.53436 31.7375 427.6125 32.003124Q426.53436 32.159374 426.08124 32.3625Q425.64374 32.55 425.39374 32.925Q425.14374 33.3 425.14374 33.76875Q425.14374 34.471874 425.675 34.940624Q426.20624 35.409374 427.2375 35.409374Q428.2531 35.409374 429.03436 34.971874Q429.83124 34.51875 430.20624 33.753124Q430.4875 33.14375 430.4875 31.9875L430.4875 31.346874ZM434.8625 36.55L434.8625 26.175L436.45624 26.175L436.45624 27.659374Q437.59686 25.940624 439.7531 25.940624Q440.6906 25.940624 441.47186 26.284374Q442.26874 26.6125 442.65936 27.159374Q443.05 27.70625 443.20624 28.45625Q443.3 28.95625 443.3 30.175L443.3 36.55L441.53436 36.55L441.53436 30.2375Q441.53436 29.159374 441.33124 28.628124Q441.1281 28.096874 440.59686 27.784374Q440.08124 27.471874 439.3781 27.471874Q438.2531 27.471874 437.4406 28.190624Q436.6281 28.89375 436.6281 30.878124L436.6281 36.55L434.8625 36.55ZM444.55 37.409374L446.2531 37.659374Q446.3625 38.45625 446.84686 38.815624Q447.5031 39.3 448.64374 39.3Q449.8625 39.3 450.51874 38.815624Q451.1906 38.33125 451.425 37.45625Q451.5656 36.909374 451.55 35.190624Q450.39374 36.55 448.675 36.55Q446.53436 36.55 445.3625 35.003124Q444.1906 33.45625 444.1906 31.3Q444.1906 29.815624 444.72186 28.565624Q445.26874 27.315624 446.28436 26.628124Q447.3156 25.940624 448.6906 25.940624Q450.51874 25.940624 451.72186 27.425L451.72186 26.175L453.33124 26.175L453.33124 35.14375Q453.33124 37.565624 452.83124 38.565624Q452.34686 39.58125 451.26874 40.159374Q450.20624 40.753124 448.64374 40.753124Q446.8 40.753124 445.64374 39.925Q444.5031 39.096874 444.55 37.409374ZM446.0031 31.175Q446.0031 33.221874 446.8156 34.159374Q447.6281 35.096874 448.84686 35.096874Q450.05 35.096874 450.8625 34.159374Q451.6906 33.221874 451.6906 31.2375Q451.6906 29.33125 450.84686 28.3625Q450.0031 27.39375 448.8156 27.39375Q447.64374 27.39375 446.8156 28.346874Q446.0031 29.3 446.0031 31.175ZM462.64374 35.26875Q461.65936 36.096874 460.7531 36.440624Q459.84686 36.784374 458.8156 36.784374Q457.1125 36.784374 456.1906 35.95625Q455.26874 35.1125 455.26874 33.815624Q455.26874 33.05 455.6125 32.425Q455.97186 31.8 456.53436 31.425Q457.09686 31.034374 457.8 30.83125Q458.3156 30.70625 459.3625 30.565624Q461.4875 30.315624 462.4875 29.971874Q462.5031 29.6125 462.5031 29.503124Q462.5031 28.440624 462.0031 27.9875Q461.33124 27.39375 460.0031 27.39375Q458.7531 27.39375 458.15936 27.83125Q457.58124 28.26875 457.3 29.378124L455.58124 29.14375Q455.8156 28.034374 456.34686 27.3625Q456.8781 26.675 457.89374 26.315624Q458.90936 25.940624 460.2531 25.940624Q461.58124 25.940624 462.40936 26.253124Q463.2375 26.565624 463.6281 27.05Q464.01874 27.51875 464.175 28.2375Q464.26874 28.690624 464.26874 29.8625L464.26874 32.20625Q464.26874 34.659374 464.3781 35.315624Q464.4875 35.95625 464.83124 36.55L462.9875 36.55Q462.72186 36.003124 462.64374 35.26875ZM462.4875 31.346874Q461.53436 31.7375 459.6125 32.003124Q458.53436 32.159374 458.08124 32.3625Q457.64374 32.55 457.39374 32.925Q457.14374 33.3 457.14374 33.76875Q457.14374 34.471874 457.675 34.940624Q458.20624 35.409374 459.2375 35.409374Q460.2531 35.409374 461.03436 34.971874Q461.83124 34.51875 462.20624 33.753124Q462.4875 33.14375 462.4875 31.9875L462.4875 31.346874ZM466.8625 36.55L466.8625 26.175L468.45624 26.175L468.45624 27.659374Q469.59686 25.940624 471.7531 25.940624Q472.6906 25.940624 473.47186 26.284374Q474.26874 26.6125 474.65936 27.159374Q475.05 27.70625 475.20624 28.45625Q475.3 28.95625 475.3 30.175L475.3 36.55L473.53436 36.55L473.53436 30.2375Q473.53436 29.159374 473.33124 28.628124Q473.1281 28.096874 472.59686 27.784374Q472.08124 27.471874 471.3781 27.471874Q470.2531 27.471874 469.4406 28.190624Q468.6281 28.89375 468.6281 30.878124L468.6281 36.55L466.8625 36.55Z" fill-rule="nonzero"/></svg>